<?xml version="1.0" standalone="no"?>
<!DOCTYPE svg PUBLIC "-//W3C//DTD SVG 20010904//EN"
 "http://www.w3.org/TR/2001/REC-SVG-20010904/DTD/svg10.dtd">
<svg version="1.0" xmlns="http://www.w3.org/2000/svg"
 width="134.000000pt" height="61.000000pt" viewBox="0 0 134.000000 61.000000"
 preserveAspectRatio="xMidYMid meet">

<g transform="translate(0.000000,61.000000) scale(0.100000,-0.100000)"
fill="#000000" stroke="none">
<path d="M255 580 c-95 -14 -169 -69 -216 -160 -34 -67 -33 -177 3 -245 52
-99 143 -157 247 -158 52 0 257 50 306 76 11 5 40 31 65 58 34 36 67 57 140
89 52 23 105 48 118 56 37 24 16 36 -52 29 -70 -7 -101 5 -76 28 8 8 128 53
265 102 138 48 256 93 264 100 35 33 3 35 -507 34 -279 -1 -530 -5 -557 -9z
m249 -209 c3 -5 -21 -22 -54 -37 -44 -21 -62 -36 -67 -54 -13 -54 -106 -120
-171 -120 -110 0 -151 140 -58 200 28 17 48 20 188 20 86 0 159 -4 162 -9z"/>
</g>
</svg>
