<?xml version="1.0" standalone="no"?>
<!DOCTYPE svg PUBLIC "-//W3C//DTD SVG 20010904//EN"
 "http://www.w3.org/TR/2001/REC-SVG-20010904/DTD/svg10.dtd">
<svg version="1.0" xmlns="http://www.w3.org/2000/svg"
 width="134.000000pt" height="61.000000pt" viewBox="0 0 134.000000 61.000000"
 preserveAspectRatio="xMidYMid meet">
<metadata>
Created by potrace 1.16, written by Peter Selinger 2001-2019
</metadata>
<g transform="translate(0.000000,61.000000) scale(0.100000,-0.100000)"
fill="#000000" stroke="none">
<path d="M237 579 c-129 -30 -227 -150 -227 -279 0 -140 114 -267 256 -285 40
-6 76 1 194 34 143 41 146 42 190 91 37 41 66 60 165 105 66 30 120 61 120 68
0 8 -21 12 -72 12 -73 0 -95 7 -76 26 6 6 129 53 274 105 144 52 264 96 267
99 2 2 2 11 -1 20 -6 13 -67 15 -529 14 -288 -1 -540 -5 -561 -10z m267 -208
c3 -5 -21 -22 -54 -37 -44 -21 -62 -36 -67 -54 -13 -54 -106 -120 -171 -120
-110 0 -151 140 -58 200 28 17 48 20 188 20 86 0 159 -4 162 -9z"/>
</g>
</svg>
